<?xml version="1.0" encoding="UTF-8" standalone="no"?>
<svg
   xmlns:dc="http://purl.org/dc/elements/1.1/"
   xmlns:cc="http://creativecommons.org/ns#"
   xmlns:rdf="http://www.w3.org/1999/02/22-rdf-syntax-ns#"
   xmlns:svg="http://www.w3.org/2000/svg"
   xmlns="http://www.w3.org/2000/svg"
   width="100px"
   height="100px"
   viewBox="0 0 100 100"
   version="1.1"
   id="svg840">
  <metadata
     id="metadata844">
    <rdf:RDF>
      <cc:Work
         rdf:about="">
        <dc:format>image/svg+xml</dc:format>
        <dc:type
           rdf:resource="http://purl.org/dc/dcmitype/StillImage" />
        <dc:title>App_Connect_Icon</dc:title>
      </cc:Work>
    </rdf:RDF>
  </metadata>
  <!-- Generator: Sketch 41.2 (35397) - http://www.bohemiancoding.com/sketch -->
  <title
     id="title815">App_Connect_Icon</title>
  <desc
     id="desc817">Created with Sketch.</desc>
  <defs
     id="defs819" />
  <g
     id="Page-1"
     stroke-width="1"
     stroke="none"
     fill-rule="evenodd"
     fill="none">
    <g
       id="App_Connect_Icon">
      <g
         id="Layer_1">
        <path
           d="M11.8487141,36.9576399 C27.2496218,39.7760968 41.3177005,46.7791225 52.5310136,57.2087746 C59.316193,63.5149018 64.913398,70.9886028 69.0559758,79.2738275 C71.3195294,83.81198 73.1657583,88.5465495 74.5718608,93.419062 C87.3782148,86.1573374 96.8668684,73.3298033 99.311649,57.6535552 C103.562784,30.3993949 84.913767,4.85627837 57.6565809,0.605143722 C32.6293495,-3.29954614 9.0484115,12.1028744 2.06656581,35.7518911 C5.34791785,35.9636333 8.61415983,36.3662307 11.8487141,36.9576399 L11.8487141,36.9576399 Z"
           id="Shape"
           fill="#743C9A" />
        <path
           d="M49.9561271,59.9773071 C39.2723147,50.0408472 25.8593041,43.366112 11.1694402,40.677761 C7.84706559,40.0713906 4.49004413,39.6732369 1.11800303,39.4856278 C0.922844175,40.3933434 0.756429652,41.3237519 0.605143722,42.2586989 C-3.64750378,69.515885 15.0030257,95.0574887 42.2602118,99.311649 C52.0843948,100.860178 62.147218,99.4267724 71.1482602,95.1966717 C69.7803656,90.2932424 67.9480708,85.5314036 65.6762481,80.9757943 C61.7362828,73.0911934 56.4116412,65.9786898 49.9561271,59.9773071 L49.9561271,59.9773071 Z"
           id="path822"
           fill="#42175E" />
        <path
           d="M69.0559758,79.2738275 C64.9135516,70.9880637 59.3163386,63.5138397 52.5310136,57.2072617 C41.3177005,46.7791225 27.2511346,39.7760968 11.8487141,36.9576399 C8.61424955,36.3647085 5.34800694,35.9605955 2.06656581,35.7473525 C1.70549672,36.9737771 1.38930913,38.2198689 1.11800303,39.4856278 C4.48953762,39.6732997 7.84605186,40.0714531 11.1679274,40.677761 C25.8593041,43.366112 39.2708018,50.0408472 49.9546142,59.9773071 C56.4092956,65.977916 61.733403,73.0893656 65.6732224,80.9727685 C67.9450451,85.5283779 69.7773399,90.2902167 71.1452345,95.193646 C72.3111447,94.6459909 73.4528492,94.0544629 74.570348,93.419062 C73.1647328,88.5466007 71.3190108,83.8120327 69.0559758,79.2738275 Z"
           id="path824"
           fill="#BA9DCD" />
        <circle
           id="Oval"
           cx="33.9016641"
           cy="77.6157337"
           fill="#FFFFFF"
           ry="6.54009077"
           rx="6.54009077" />
        <circle
           id="ellipse827"
           cx="49.5627837"
           cy="27.1406959"
           fill="#FFFFFF"
           ry="7.86384266"
           rx="7.86384266" />
        <path
           d="M49.5627837,41.5007564 C41.6319412,41.5007564 35.2027231,35.0715383 35.2027231,27.1406959 C35.2027231,19.2098535 41.6319412,12.7806354 49.5627837,12.7806354 C57.4936261,12.7806354 63.9228442,19.2098535 63.9228442,27.1406959 C63.9161707,35.0687725 57.4908602,41.494083 49.5627837,41.5007564 Z M49.5627837,14.5960666 C42.6345762,14.5960666 37.0181543,20.2124884 37.0181543,27.1406959 C37.0181543,34.0689034 42.6345762,39.6853253 49.5627837,39.6853253 C56.4909911,39.6853253 62.107413,34.0689034 62.107413,27.1406959 C62.0999073,20.2158447 56.4876357,14.6042499 49.5627837,14.5975794 L49.5627837,14.5960666 Z"
           id="path829"
           fill="#FFFFFF" />
        <path
           d="M78.1785174,61.4780635 C75.2959419,61.4780635 72.9591528,59.1412744 72.9591528,56.2586989 C72.9591528,53.3761235 75.2959419,51.0393343 78.1785174,51.0393343 C81.0610929,51.0393343 83.397882,53.3761235 83.397882,56.2586989 C83.3953796,59.1402372 81.0600557,61.4755611 78.1785174,61.4780635 Z M78.1785174,52.8547655 C76.2985769,52.8547655 74.774584,54.3787584 74.774584,56.2586989 C74.774584,58.1386395 76.2985769,59.6626324 78.1785174,59.6626324 C80.0584579,59.6626324 81.5824508,58.1386395 81.5824508,56.2586989 C81.5799489,54.3800407 80.0571766,52.8579451 78.1785174,52.8562784 L78.1785174,52.8547655 Z"
           id="path831"
           fill="#FFFFFF" />
        <path
           d="M45.698941,45.4689864 C44.613021,45.2402312 43.5497718,44.9146744 42.5219365,44.4962179 L35.0438729,67.7246596 C36.1546832,67.8508262 37.236066,68.1643965 38.2420575,68.6520424 L45.698941,45.4689864 Z"
           id="path833"
           fill="#FFFFFF" />
        <path
           d="M73.2360061,48.484115 L64.1210287,38.9213313 C63.4211428,39.7859321 62.6460518,40.5868426 61.8048411,41.3146747 L70.8018154,50.7473525 C71.4700971,49.8523269 72.2947711,49.0855698 73.2360061,48.484115 L73.2360061,48.484115 Z"
           id="path835"
           fill="#FFFFFF" />
      </g>
    </g>
  </g>
  <g
     id="text838"
     style="font-style:normal;font-variant:normal;font-weight:bold;font-stretch:normal;font-size:30.57659531px;line-height:40.95079422px;font-family:'IBM Plex Sans';-inkscape-font-specification:'IBM Plex Sans Bold';letter-spacing:0px;word-spacing:0px;writing-mode:lr-tb;opacity:1;fill:#d40000;stroke:#000000;stroke-width:0.99999988px;stroke-linecap:butt;stroke-linejoin:miter;stroke-opacity:1"
     transform="matrix(0.86831241,-0.50182773,0.49817894,0.86374442,0,0)"
     aria-label="DEMO">
    <path
       id="path880"
       style="fill:#d40000;stroke:#000000;stroke-width:0.99999988px"
       d="m -21.767989,80.243614 h 8.041644 c 5.6566706,0 9.3870152,-3.577461 9.3870152,-10.671232 0,-7.09377 -3.7303446,-10.671231 -9.3870152,-10.671231 h -8.041644 z m 4.647642,-4.12784 V 63.028991 h 3.394002 c 2.751894,0 4.4641834,1.498253 4.4641834,4.892255 v 3.302273 c 0,3.394002 -1.7122894,4.892255 -4.4641834,4.892255 z" />
    <path
       id="path882"
       style="fill:#d40000;stroke:#000000;stroke-width:0.99999988px"
       d="m 14.075903,80.243614 v -4.12784 H 4.1996626 V 71.498708 H 12.66938 V 67.401444 H 4.1996626 v -4.372453 h 9.8762404 v -4.12784 H -0.44797986 v 21.342463 z" />
    <path
       id="path884"
       style="fill:#d40000;stroke:#000000;stroke-width:0.99999988px"
       d="m 34.085896,80.243614 h 4.372453 V 58.901151 h -4.953408 l -5.167445,9.998546 h -0.06115 l -5.228598,-9.998546 h -4.922832 v 21.342463 h 4.372453 V 66.025497 h 0.09173 l 1.62056,3.363426 4.066687,7.521842 4.158417,-7.552419 1.559406,-3.118812 h 0.09173 z" />
    <path
       id="path886"
       style="fill:#d40000;stroke:#000000;stroke-width:0.99999988px"
       d="m 51.709,80.610533 c 5.65667,0 9.387015,-3.791497 9.387015,-11.038151 0,-7.246653 -3.730345,-11.03815 -9.387015,-11.03815 -5.65667,0 -9.387015,3.791497 -9.387015,11.03815 0,7.246654 3.730345,11.038151 9.387015,11.038151 z m 0,-4.12784 c -2.78247,0 -4.464183,-1.926326 -4.464183,-5.320328 v -3.179966 c 0,-3.394002 1.681713,-5.320327 4.464183,-5.320327 2.78247,0 4.464183,1.926325 4.464183,5.320327 v 3.179966 c 0,3.394002 -1.681713,5.320328 -4.464183,5.320328 z" />
  </g>
</svg>
