<?xml version="1.0" encoding="UTF-8" standalone="no"?>
<svg
   xmlns:dc="http://purl.org/dc/elements/1.1/"
   xmlns:cc="http://creativecommons.org/ns#"
   xmlns:rdf="http://www.w3.org/1999/02/22-rdf-syntax-ns#"
   xmlns:svg="http://www.w3.org/2000/svg"
   xmlns="http://www.w3.org/2000/svg"
   id="svg27"
   version="1.1"
   viewBox="0 0 100 100"
   height="100px"
   width="100px">
  <metadata
     id="metadata31">
    <rdf:RDF>
      <cc:Work
         rdf:about="">
        <dc:format>image/svg+xml</dc:format>
        <dc:type
           rdf:resource="http://purl.org/dc/dcmitype/StillImage" />
        <dc:title>App_Connect_Icon</dc:title>
      </cc:Work>
    </rdf:RDF>
  </metadata>
  <!-- Generator: Sketch 41.2 (35397) - http://www.bohemiancoding.com/sketch -->
  <title
     id="title2">App_Connect_Icon</title>
  <desc
     id="desc4">Created with Sketch.</desc>
  <defs
     id="defs6">
	

		
		
	</defs>
  <g
     fill-rule="evenodd"
     fill="none"
     stroke-width="1"
     stroke="none"
     id="Page-1">
    <g
       id="App_Connect_Icon">
      <g
         id="Layer_1">
        <path
           fill="#743C9A"
           id="Shape"
           d="M11.8487141,36.9576399 C27.2496218,39.7760968 41.3177005,46.7791225 52.5310136,57.2087746 C59.316193,63.5149018 64.913398,70.9886028 69.0559758,79.2738275 C71.3195294,83.81198 73.1657583,88.5465495 74.5718608,93.419062 C87.3782148,86.1573374 96.8668684,73.3298033 99.311649,57.6535552 C103.562784,30.3993949 84.913767,4.85627837 57.6565809,0.605143722 C32.6293495,-3.29954614 9.0484115,12.1028744 2.06656581,35.7518911 C5.34791785,35.9636333 8.61415983,36.3662307 11.8487141,36.9576399 L11.8487141,36.9576399 Z" />
        <path
           fill="#42175E"
           id="path9"
           d="M49.9561271,59.9773071 C39.2723147,50.0408472 25.8593041,43.366112 11.1694402,40.677761 C7.84706559,40.0713906 4.49004413,39.6732369 1.11800303,39.4856278 C0.922844175,40.3933434 0.756429652,41.3237519 0.605143722,42.2586989 C-3.64750378,69.515885 15.0030257,95.0574887 42.2602118,99.311649 C52.0843948,100.860178 62.147218,99.4267724 71.1482602,95.1966717 C69.7803656,90.2932424 67.9480708,85.5314036 65.6762481,80.9757943 C61.7362828,73.0911934 56.4116412,65.9786898 49.9561271,59.9773071 L49.9561271,59.9773071 Z" />
        <path
           fill="#BA9DCD"
           id="path11"
           d="M69.0559758,79.2738275 C64.9135516,70.9880637 59.3163386,63.5138397 52.5310136,57.2072617 C41.3177005,46.7791225 27.2511346,39.7760968 11.8487141,36.9576399 C8.61424955,36.3647085 5.34800694,35.9605955 2.06656581,35.7473525 C1.70549672,36.9737771 1.38930913,38.2198689 1.11800303,39.4856278 C4.48953762,39.6732997 7.84605186,40.0714531 11.1679274,40.677761 C25.8593041,43.366112 39.2708018,50.0408472 49.9546142,59.9773071 C56.4092956,65.977916 61.733403,73.0893656 65.6732224,80.9727685 C67.9450451,85.5283779 69.7773399,90.2902167 71.1452345,95.193646 C72.3111447,94.6459909 73.4528492,94.0544629 74.570348,93.419062 C73.1647328,88.5466007 71.3190108,83.8120327 69.0559758,79.2738275 Z" />
        <circle
           rx="6.54009077"
           ry="6.54009077"
           fill="#FFFFFF"
           cy="77.6157337"
           cx="33.9016641"
           id="Oval" />
        <circle
           rx="7.86384266"
           ry="7.86384266"
           fill="#FFFFFF"
           cy="27.1406959"
           cx="49.5627837"
           id="ellipse14" />
        <path
           fill="#FFFFFF"
           id="path16"
           d="M49.5627837,41.5007564 C41.6319412,41.5007564 35.2027231,35.0715383 35.2027231,27.1406959 C35.2027231,19.2098535 41.6319412,12.7806354 49.5627837,12.7806354 C57.4936261,12.7806354 63.9228442,19.2098535 63.9228442,27.1406959 C63.9161707,35.0687725 57.4908602,41.494083 49.5627837,41.5007564 Z M49.5627837,14.5960666 C42.6345762,14.5960666 37.0181543,20.2124884 37.0181543,27.1406959 C37.0181543,34.0689034 42.6345762,39.6853253 49.5627837,39.6853253 C56.4909911,39.6853253 62.107413,34.0689034 62.107413,27.1406959 C62.0999073,20.2158447 56.4876357,14.6042499 49.5627837,14.5975794 L49.5627837,14.5960666 Z" />
        <path
           fill="#FFFFFF"
           id="path18"
           d="M78.1785174,61.4780635 C75.2959419,61.4780635 72.9591528,59.1412744 72.9591528,56.2586989 C72.9591528,53.3761235 75.2959419,51.0393343 78.1785174,51.0393343 C81.0610929,51.0393343 83.397882,53.3761235 83.397882,56.2586989 C83.3953796,59.1402372 81.0600557,61.4755611 78.1785174,61.4780635 Z M78.1785174,52.8547655 C76.2985769,52.8547655 74.774584,54.3787584 74.774584,56.2586989 C74.774584,58.1386395 76.2985769,59.6626324 78.1785174,59.6626324 C80.0584579,59.6626324 81.5824508,58.1386395 81.5824508,56.2586989 C81.5799489,54.3800407 80.0571766,52.8579451 78.1785174,52.8562784 L78.1785174,52.8547655 Z" />
        <path
           fill="#FFFFFF"
           id="path20"
           d="M45.698941,45.4689864 C44.613021,45.2402312 43.5497718,44.9146744 42.5219365,44.4962179 L35.0438729,67.7246596 C36.1546832,67.8508262 37.236066,68.1643965 38.2420575,68.6520424 L45.698941,45.4689864 Z" />
        <path
           fill="#FFFFFF"
           id="path22"
           d="M73.2360061,48.484115 L64.1210287,38.9213313 C63.4211428,39.7859321 62.6460518,40.5868426 61.8048411,41.3146747 L70.8018154,50.7473525 C71.4700971,49.8523269 72.2947711,49.0855698 73.2360061,48.484115 L73.2360061,48.484115 Z" />
      </g>
    </g>
  </g>
  <path
     id="path5146"
     d="M 69.656489,0.23739687 C 66.119422,0.1682557 64.114854,3.8835021 64.22468,7.0501413 61.535269,8.0685956 58.476519,3.5533846 55.209334,5.9201105 51.474422,8.073843 46.874602,13.347654 50.792593,17.465714 c 2.809649,4.191181 -5.247114,2.27835 -5.992949,6.239931 -1.472022,4.251844 -1.107461,11.690182 4.800953,11.910512 4.953836,0.983709 -2.11642,5.305605 0.153945,8.640723 1.954452,4.053797 7.512247,9.053152 11.817676,5.035526 4.123695,-2.658348 2.252703,6.230686 6.961901,6.299257 4.132568,1.057001 10.957887,0.489727 11.081377,-5.100035 1.00619,-4.850079 5.172794,2.050238 8.464324,-0.0024 4.156976,-1.86071 9.309243,-7.50558 5.24389,-11.899748 -2.723614,-4.154031 5.233795,-2.226523 6.043007,-6.111792 1.514083,-4.25353 1.199423,-11.773839 -4.74776,-11.997911 C 89.763373,19.46136 96.74971,15.20347 94.576535,11.882446 92.648789,7.7896801 87.05755,2.7420783 82.72815,6.7721432 78.473819,9.5118312 80.369238,1.4854826 76.400282,0.69323981 74.287594,-0.21927558 71.872838,0.4348072 69.656489,0.23739687 Z M 72.586908,18.829275 c 8.974165,-0.05764 11.92604,13.432956 3.893817,17.222434 -7.672956,4.771318 -17.332375,-5.376563 -12.22157,-12.805738 1.692837,-2.854349 5.01187,-4.624945 8.327753,-4.416696 z"
     style="fill:#ffffff;stroke:none;stroke-width:0.10778572" />
  <path
     id="path5125"
     d="m 69.735674,2.1961878 c -1.562892,0 -2.889246,1.1222946 -3.147932,2.6636311 l -0.625031,3.6632702 c -1.2072,0.377249 -2.380868,0.8741333 -3.501839,1.4777359 L 59.495071,7.8670123 C 58.95614,7.4789867 58.31101,7.2730316 57.642739,7.2730316 c -0.851509,0 -1.661022,0.3339407 -2.253844,0.9375431 l -3.222438,3.2120893 c -1.099414,1.099417 -1.251031,2.834311 -0.345631,4.106177 l 2.156569,3.029966 c -0.59282,1.131756 -1.067792,2.306631 -1.434262,3.524602 l -3.578416,0.602267 c -1.541338,0.258684 -2.661564,1.585037 -2.661564,3.147927 v 4.538728 c 0,1.562889 1.120226,2.887176 2.661564,3.145861 l 3.665341,0.627105 c 0.37725,1.207195 0.872057,2.380862 1.475657,3.501841 l -2.123456,2.953385 c -0.905399,1.271877 -0.764563,3.006759 0.345631,4.106171 l 3.212089,3.212089 c 0.6036,0.603603 1.400266,0.937543 2.251774,0.937543 0.668271,0 1.305124,-0.203879 1.844053,-0.591915 l 3.027892,-2.156573 c 1.088635,0.571271 2.231769,1.034682 3.406635,1.401154 l 0.604336,3.62188 c 0.258685,1.541336 1.585037,2.663631 3.147929,2.663631 h 4.547011 c 1.562893,0 2.889243,-1.122295 3.14793,-2.663631 l 0.614684,-3.62188 c 1.217979,-0.377249 2.393285,-0.862149 3.514256,-1.454963 l 2.984429,2.133802 c 0.538929,0.388025 1.186131,0.593991 1.854402,0.593991 0.851508,0 1.648174,-0.333952 2.251776,-0.937545 l 3.212086,-3.212088 c 1.099416,-1.099411 1.251032,-2.834295 0.345633,-4.106171 l -2.133804,-2.99685 c 0.59282,-1.131757 1.088488,-2.307067 1.454961,-3.514261 l 3.621877,-0.604334 c 1.541334,-0.258685 2.661564,-1.58297 2.661564,-3.145861 v -4.538728 c 0.02151,-1.5629 -1.099534,-2.889243 -2.640868,-3.147927 l -3.621878,-0.61262 c -0.37725,-1.217971 -0.862139,-2.393291 -1.454962,-3.514261 L 92.3155,15.464678 c 0.9054,-1.271856 0.766632,-3.00676 -0.343561,-4.106177 L 88.75985,8.1464231 c -0.6036,-0.6036131 -1.402336,-0.937554 -2.253843,-0.937554 -0.668272,0 -1.303055,0.203889 -1.841984,0.5919145 L 81.667177,9.9345963 C 80.503092,9.3202065 79.285694,8.8154913 78.024601,8.4382423 L 77.420265,4.8598189 C 77.161579,3.3184824 75.835229,2.1961878 74.272335,2.1961878 Z M 72.107487,16.85548 c 6.143786,0 11.13262,4.990906 11.13262,11.134697 0,6.143793 -4.988834,11.134688 -11.13262,11.134688 -6.143786,0 -11.134692,-4.990895 -11.134692,-11.134688 0,-6.143791 4.990906,-11.134697 11.134692,-11.134697 z"
     style="fill:#000000;stroke:#000000;stroke-width:0.10778572" />
  <path
     id="path440"
     d="m 69.756369,5.0957624 c -0.140119,0 -0.257848,0.097891 -0.279401,0.2380097 l -0.776116,4.5594236 c -0.09701,0.5604853 -0.51823,1.0122483 -1.067937,1.1631443 -1.584449,0.409589 -3.104403,1.057136 -4.505617,1.89786 -0.495815,0.291056 -1.11937,0.267912 -1.593627,-0.06622 l -3.719154,-2.651219 c -0.04312,-0.03243 -0.09675,-0.05381 -0.16143,-0.05381 -0.05389,0 -0.129448,0.01147 -0.204895,0.08692 l -3.21209,3.21209 c -0.09701,0.097 -0.108558,0.258534 -0.03312,0.366323 l 2.68433,3.772966 c 0.334133,0.463483 0.365529,1.077121 0.07451,1.572935 -0.829949,1.411984 -1.443178,2.941854 -1.841985,4.52631 -0.14012,0.560485 -0.604292,0.981328 -1.175557,1.078285 l -4.493199,0.755421 c -0.14012,0.02155 -0.238011,0.139279 -0.238011,0.2794 v 4.538728 c 0,0.14012 0.09789,0.2579 0.238011,0.279411 l 4.557357,0.776114 c 0.560487,0.097 1.014312,0.518228 1.165212,1.067936 0.409585,1.584452 1.057134,3.104394 1.897863,4.505613 0.291022,0.495814 0.267907,1.119371 -0.06622,1.59363 l -2.651215,3.719157 c -0.07546,0.118562 -0.06389,0.269365 0.03312,0.366324 l 3.212088,3.212084 c 0.07545,0.07545 0.161777,0.08689 0.204895,0.08689 0.05389,0 0.107534,-0.02152 0.161433,-0.05383 l 3.772963,-2.684321 c 0.247907,-0.183203 0.549254,-0.269058 0.840275,-0.269058 0.247909,0 0.506304,0.0652 0.732654,0.194542 1.390436,0.797616 2.877356,1.410067 4.418693,1.808864 0.549707,0.140119 0.970924,0.593949 1.067935,1.165211 l 0.753353,4.526319 c 0.02155,0.140176 0.141345,0.238009 0.281471,0.238009 h 4.536661 c 0.140119,0 0.259918,-0.0979 0.281472,-0.238009 l 0.763699,-4.526319 c 0.08623,-0.560484 0.507453,-1.025093 1.067938,-1.165211 1.584449,-0.409574 3.103971,-1.034369 4.515963,-1.87509 0.495815,-0.291058 1.12187,-0.267915 1.585349,0.06622 l 3.73985,2.66156 c 0.04312,0.03243 0.09675,0.05383 0.161431,0.05383 0.05389,0 0.129447,-0.0114 0.204894,-0.08688 l 3.21209,-3.212085 c 0.097,-0.097 0.108559,-0.258546 0.03312,-0.366323 l -2.663634,-3.750195 c -0.334135,-0.47426 -0.355181,-1.08954 -0.06416,-1.585354 0.84073,-1.411996 1.465512,-2.931514 1.875099,-4.515967 0.14012,-0.549709 0.593946,-0.96891 1.16521,-1.065868 l 4.526313,-0.755421 c 0.140119,-0.02155 0.235941,-0.139278 0.235941,-0.279399 h 0.01239 V 25.72598 c 0,-0.140134 -0.09789,-0.25789 -0.238008,-0.2794 l -4.526312,-0.765772 c -0.560488,-0.08624 -1.02509,-0.507451 -1.165211,-1.067934 -0.409587,-1.584445 -1.034369,-3.103974 -1.875098,-4.515966 -0.291021,-0.495816 -0.269976,-1.119805 0.06416,-1.583279 l 2.663633,-3.739852 c 0.07545,-0.118566 0.06389,-0.271326 -0.03312,-0.368389 l -3.212072,-3.212089 c -0.07545,-0.07545 -0.16178,-0.08485 -0.204895,-0.08485 -0.05389,0 -0.107534,0.02149 -0.161433,0.05381 l -3.719152,2.671909 c -0.474257,0.33411 -1.087465,0.357253 -1.583278,0.06622 C 79.587469,12.048889 78.035776,11.412109 76.408211,11.002529 75.847725,10.8624 75.426927,10.398228 75.329926,9.8269655 L 74.574505,5.3337721 C 74.552952,5.1936006 74.435225,5.0957624 74.295104,5.0957624 Z M 72.107487,16.85548 c 6.143786,0 11.13262,4.990906 11.13262,11.134697 0,6.143793 -4.988834,11.134688 -11.13262,11.134688 -6.143786,0 -11.134692,-4.990895 -11.134692,-11.134688 0,-6.143791 4.990906,-11.134697 11.134692,-11.134697 z"
     style="fill:#ffffff;stroke:#000000;stroke-width:0.10778572" />
  <path
     style="fill:#000000;stroke:#000000;stroke-width:0.10778572"
     d="m 72.107487,16.85548 c -6.143786,0 -11.134692,4.990906 -11.134692,11.134697 0,6.143793 4.990906,11.134688 11.134692,11.134688 6.143786,0 11.13262,-4.990895 11.13262,-11.134688 0,-6.143791 -4.988834,-11.134697 -11.13262,-11.134697 z m 0,2.909927 c 4.537778,0 8.222699,3.686986 8.222699,8.22477 0,4.537785 -3.684921,8.222694 -8.222699,8.222694 -4.537779,0 -8.224771,-3.684909 -8.224771,-8.222694 0,-4.537784 3.686992,-8.22477 8.224771,-8.22477 z"
     id="path5138" />
  <g
     transform="matrix(0.10171744,0,0,0.10171744,50.799014,0.04780757)"
     id="g448">
</g>
  <g
     transform="matrix(0.10171744,0,0,0.10171744,50.799014,0.04780757)"
     id="g450">
</g>
  <g
     transform="matrix(0.10171744,0,0,0.10171744,50.799014,0.04780757)"
     id="g452">
</g>
  <g
     transform="matrix(0.10171744,0,0,0.10171744,50.799014,0.04780757)"
     id="g454">
</g>
  <g
     transform="matrix(0.10171744,0,0,0.10171744,50.799014,0.04780757)"
     id="g456">
</g>
  <g
     transform="matrix(0.10171744,0,0,0.10171744,50.799014,0.04780757)"
     id="g458">
</g>
  <g
     transform="matrix(0.10171744,0,0,0.10171744,50.799014,0.04780757)"
     id="g460">
</g>
  <g
     transform="matrix(0.10171744,0,0,0.10171744,50.799014,0.04780757)"
     id="g462">
</g>
  <g
     transform="matrix(0.10171744,0,0,0.10171744,50.799014,0.04780757)"
     id="g464">
</g>
  <g
     transform="matrix(0.10171744,0,0,0.10171744,50.799014,0.04780757)"
     id="g466">
</g>
  <g
     transform="matrix(0.10171744,0,0,0.10171744,50.799014,0.04780757)"
     id="g468">
</g>
  <g
     transform="matrix(0.10171744,0,0,0.10171744,50.799014,0.04780757)"
     id="g470">
</g>
  <g
     transform="matrix(0.10171744,0,0,0.10171744,50.799014,0.04780757)"
     id="g472">
</g>
  <g
     transform="matrix(0.10171744,0,0,0.10171744,50.799014,0.04780757)"
     id="g474">
</g>
  <g
     transform="matrix(0.10171744,0,0,0.10171744,50.799014,0.04780757)"
     id="g476">
</g>
</svg>
